<svg xmlns="http://www.w3.org/2000/svg" viewBox="0 0 1024 1024" role="img" aria-labelledby="busabase-logo-title busabase-logo-desc">
  <title id="busabase-logo-title">Busabase logo</title>
  <desc id="busabase-logo-desc">A lotus seed mark for Busabase's approval-first knowledge base.</desc>
  <rect width="1024" height="1024" rx="224" fill="#fffaf3"/>
  <path d="M 462.00 799.38 C441.09,802.83 413.31,802.14 389.21,797.56 C350.03,790.12 315.15,774.99 280.73,750.51 C247.70,727.02 214.72,692.13 193.22,657.94 C180.75,638.11 167.98,610.04 162.10,589.51 C155.07,564.99 150.83,533.01 154.25,530.23 C159.36,526.07 222.19,525.01 245.00,528.70 C251.88,529.82 257.85,530.42 258.27,530.05 C258.69,529.67 256.82,524.67 254.12,518.93 C242.83,494.92 237.24,472.04 236.31,445.94 C235.40,420.54 237.92,401.53 245.50,376.50 C248.98,365.01 257.24,343.87 259.27,341.25 C261.02,339.00 266.12,339.93 277.90,344.63 C317.09,360.27 354.84,384.86 381.97,412.41 C386.09,416.58 389.73,420.00 390.08,420.00 C390.42,420.00 391.51,416.96 392.50,413.25 C394.76,404.73 401.64,385.38 406.79,373.00 C427.09,324.27 456.68,280.16 494.14,242.78 C502.41,234.54 510.02,227.78 511.46,227.42 C514.90,226.56 516.65,227.83 531.07,241.72 C567.14,276.47 597.96,321.94 619.03,371.50 C623.38,381.72 635.00,415.97 635.00,418.56 C635.00,420.98 636.37,420.21 641.54,414.89 C668.67,386.93 707.32,361.34 746.33,345.50 C763.32,338.61 765.55,338.56 768.70,345.00 C769.91,347.48 772.44,353.55 774.33,358.50 C785.82,388.73 789.40,407.72 789.40,438.50 C789.40,454.84 788.98,460.85 787.13,471.33 C784.44,486.54 777.89,507.28 771.54,520.68 C769.03,525.98 767.10,530.40 767.24,530.51 C767.38,530.62 773.12,529.81 780.00,528.71 C802.85,525.05 865.52,526.12 870.75,530.26 C872.41,531.57 872.33,538.39 870.46,552.70 C860.66,627.95 815.81,700.38 748.71,749.33 C711.19,776.70 666.92,794.58 623.50,799.91 C584.35,804.71 549.05,799.66 521.97,785.38 L 513.00 780.64 L 503.17 785.72 C491.41,791.79 475.01,797.23 462.00,799.38 ZM 508.70 744.75 C510.59,747.09 512.37,749.00 512.66,749.00 C514.57,749.00 525.49,732.52 537.50,711.50 C558.88,674.10 577.54,647.42 596.60,627.03 C603.94,619.18 603.87,619.31 608.32,605.50 C630.36,537.16 629.91,474.62 606.89,405.82 C590.80,357.72 560.24,307.34 524.82,270.49 C518.75,264.17 513.18,259.00 512.46,259.00 C509.06,259.00 479.43,294.00 465.26,314.75 C435.02,359.03 414.69,407.50 405.93,456.14 C396.57,508.10 400.50,561.46 417.15,608.79 C419.50,615.48 421.30,618.66 424.87,622.50 C446.11,645.28 465.84,673.16 486.46,709.50 C497.71,729.33 502.94,737.61 508.70,744.75 ZM 578.18 777.96 C589.50,779.04 610.93,778.36 624.52,776.49 C658.81,771.78 692.87,758.58 725.00,737.56 C753.39,718.99 783.47,689.35 804.22,659.50 C820.68,635.82 833.95,607.87 841.52,580.92 C843.76,572.94 847.99,553.03 848.00,550.40 C848.00,548.71 822.60,547.86 806.50,549.02 C769.00,551.71 737.03,560.23 703.22,576.53 C669.35,592.87 647.03,608.91 620.32,636.13 C597.42,659.46 582.77,679.72 556.60,724.25 C549.57,736.21 540.93,749.86 537.41,754.59 C533.88,759.31 531.00,763.55 531.00,763.99 C531.00,765.46 548.31,772.10 558.68,774.61 C564.28,775.96 573.06,777.47 578.18,777.96 ZM 417.43 777.89 C444.91,779.50 466.72,776.68 484.40,769.24 C487.76,767.83 491.30,765.94 492.27,765.04 C493.95,763.49 493.81,763.10 489.45,757.49 C484.06,750.55 477.46,739.99 466.01,720.00 C433.70,663.57 399.76,625.00 357.78,596.98 C307.05,563.14 246.34,545.77 189.50,548.85 L 177.50 549.50 L 177.81 554.00 C178.18,559.28 182.16,576.72 185.12,586.00 C198.57,628.22 223.96,667.53 260.68,702.99 C276.28,718.06 287.22,726.85 304.50,738.21 C339.83,761.44 380.48,775.72 417.43,777.89 ZM 638.39 586.25 C638.10,587.21 638.09,588.00 638.37,588.00 C638.65,588.00 642.39,585.47 646.69,582.39 C665.25,569.05 693.51,554.23 718.50,544.73 L 732.50 539.41 L 737.71 532.51 C744.71,523.23 754.14,504.72 758.50,491.72 C770.05,457.18 769.66,417.76 757.39,379.79 C754.66,371.34 753.51,369.00 752.09,369.00 C748.82,369.00 714.73,386.69 702.50,394.73 C681.59,408.49 660.49,426.82 647.36,442.64 L 642.26 448.79 L 643.13 454.14 C647.25,479.81 648.37,521.39 645.57,545.00 C644.17,556.76 639.94,581.12 638.39,586.25 ZM 381.50 584.62 C386.60,588.63 386.86,587.84 384.37,575.80 C379.07,550.12 378.52,544.20 378.54,512.50 C378.56,483.34 379.37,472.42 382.93,453.35 C383.78,448.82 383.75,448.77 378.05,442.15 C355.70,416.23 324.76,392.95 290.72,376.45 C290.26,376.23 289.81,376.01 289.37,375.80 C279.55,371.03 275.65,369.15 273.42,370.35 C271.86,371.19 271.11,373.55 269.71,377.50 C257.65,411.55 255.82,448.16 264.54,480.92 C269.58,499.87 279.25,520.33 289.40,533.56 C294.48,540.17 294.54,540.21 306.00,544.48 C334.66,555.17 363.53,570.52 381.50,584.62 ZM 522.32 554.50 C507.86,558.27 493.44,553.57 482.03,541.37 C474.39,533.21 471.76,526.63 471.22,514.29 C470.73,503.31 472.22,497.89 478.17,488.98 C486.23,476.92 500.01,470.34 515.33,471.24 C527.65,471.97 533.98,474.79 542.59,483.41 C552.22,493.03 554.42,498.53 554.47,513.05 C554.50,523.26 554.38,523.85 550.74,531.21 C544.81,543.21 535.08,551.18 522.32,554.50 Z" fill="#151515"/>
</svg>
